<?xml version="1.0" standalone="no"?>
<!DOCTYPE svg PUBLIC "-//W3C//DTD SVG 1.1//EN" "http://www.w3.org/Graphics/SVG/1.1/DTD/svg11.dtd">
<svg width="100%" height="100%" viewBox="0 0 100 100" version="1.1" xmlns="http://www.w3.org/2000/svg" xmlns:xlink="http://www.w3.org/1999/xlink" xml:space="preserve" style="fill-rule:evenodd;clip-rule:evenodd;stroke-linejoin:round;stroke-miterlimit:1.41421;">
    <path d="M88.063,40.924C85.013,43.355 81.585,46.653 77.243,45.891C76.013,45.674 75.195,44.865 76.742,43.009C78.287,41.152 78.968,36.127 78.968,32.523C78.968,18.106 67.647,6.418 53.682,6.418C39.716,6.418 28.396,18.106 28.396,32.522C28.396,36.126 29.103,39.56 30.424,43.185C24.764,47.273 17.866,44.352 11.654,45.729C7.42,46.666 1.621,50.297 3.344,54.889C6.318,62.814 22.594,59.649 26.719,55.664C30.842,51.68 32.753,47.251 37.687,49.257C42.392,51.17 45.042,58.322 40.687,61.843C36.455,65.264 31.652,68.155 28.698,72.923C25.406,78.235 25.275,86.652 31.154,90.127C36.043,92.65 41.983,91.713 46.926,89.85C52.109,87.613 55.735,82.326 55.789,76.52C55.843,70.999 54.662,65.048 56.548,59.916C58.405,54.859 65.415,58.635 66.995,62.908C68.776,67.726 70.97,73.058 75.092,76.305C78.966,79.359 84.746,79.925 89.449,78.515C94.074,77.122 95.376,71.457 94.091,67.029C92.79,62.543 88.885,59.106 84.231,58.908C80.003,58.726 77.772,52.262 83.124,51.226C87.535,50.374 93.389,50.334 96.06,46.225C99.132,41.494 92.045,37.75 88.063,40.924ZM46.058,35.4C42.755,35.403 40.074,31.864 40.073,27.496C40.073,27.493 40.073,27.489 40.073,27.485C40.073,23.116 42.751,19.574 46.055,19.574C49.357,19.574 52.035,23.115 52.035,27.485C52.037,31.854 49.36,35.398 46.058,35.4ZM61.568,35.4C58.262,35.403 55.584,31.864 55.582,27.496C55.582,27.493 55.582,27.489 55.582,27.485C55.582,23.116 58.26,19.574 61.563,19.574C64.866,19.574 67.543,23.115 67.543,27.485C67.547,31.854 64.87,35.398 61.568,35.4Z" style="fill:black;"/>
    <path d="M49.986,29.067C49.987,31.755 48.341,33.934 46.309,33.935C44.278,33.936 42.629,31.76 42.629,29.073C42.629,29.071 42.629,29.069 42.629,29.066C42.629,26.379 44.275,24.201 46.307,24.201C48.339,24.202 49.986,26.38 49.986,29.067Z" style="fill:black;"/>
    <path d="M64.987,29.067C64.988,31.755 63.342,33.934 61.309,33.935C59.279,33.936 57.63,31.76 57.629,29.073C57.629,29.071 57.629,29.069 57.629,29.066C57.629,26.379 59.275,24.201 61.308,24.201C63.341,24.203 64.987,26.38 64.987,29.067Z" style="fill:black;"/>
</svg>
